<svg xmlns="http://www.w3.org/2000/svg" viewBox="0 0 128 128">
  <defs>
    <linearGradient id="bg" x1="18%" y1="10%" x2="90%" y2="92%">
      <stop offset="0%" stop-color="#172236" />
      <stop offset="100%" stop-color="#07111f" />
    </linearGradient>
    <linearGradient id="edge" x1="20%" y1="8%" x2="86%" y2="86%">
      <stop offset="0%" stop-color="#f5c518" />
      <stop offset="52%" stop-color="#0d5bd7" />
      <stop offset="100%" stop-color="#c62839" />
    </linearGradient>
  </defs>
  <rect width="128" height="128" rx="31" fill="url(#bg)" />
  <path d="M21 78 45 27h18L39 78H21Z" fill="#f7f3e8" />
  <path d="M58 27h19L53 78H34l24-51Z" fill="#d8e7f7" opacity=".88" />
  <path d="M77 27h18L70 78H52l25-51Z" fill="#f7f3e8" />
  <path d="M20 88h82" stroke="url(#edge)" stroke-width="8" stroke-linecap="round" />
  <path d="M45 88h57" stroke="#0d5bd7" stroke-width="4" stroke-linecap="round" />
  <path d="M72 88h30" stroke="#c62839" stroke-width="4" stroke-linecap="round" />
  <circle cx="96" cy="35" r="10" fill="#f7f3e8" />
  <circle cx="96" cy="35" r="4" fill="#015f65" />
  <path d="M86 50h20M96 45v14" stroke="#f5c518" stroke-width="4" stroke-linecap="round" />
  <rect x="8" y="8" width="112" height="112" rx="27" fill="none" stroke="rgba(255,255,255,.1)" />
</svg>
