<svg xmlns="http://www.w3.org/2000/svg" viewBox="0 0 128 128">
  <defs>
    <linearGradient id="ring" x1="16%" y1="12%" x2="88%" y2="86%">
      <stop offset="0%" stop-color="#F5C518" />
      <stop offset="48%" stop-color="#2E5BFF" />
      <stop offset="100%" stop-color="#E63946" />
    </linearGradient>
  </defs>

  <rect width="128" height="128" rx="30" fill="#08111F" />
  <rect x="10" y="10" width="108" height="108" rx="24" fill="none" stroke="rgba(255,255,255,0.08)" />

  <circle cx="56" cy="54" r="26" fill="none" stroke="url(#ring)" stroke-width="11" />
  <circle cx="56" cy="54" r="15" fill="none" stroke="rgba(255,255,255,0.16)" stroke-width="2.6" />
  <circle cx="56" cy="54" r="6.5" fill="#F8FAFC" />

  <path
    d="M57 38 L63 46 L60 56 L66 66 L60 79 L49 71 L47 59 L50 48 Z"
    fill="#F8FAFC"
    opacity="0.96"
  />

  <path d="M76 74 L96 94" stroke="#F5C518" stroke-width="10" stroke-linecap="round" />
  <path d="M88 82 L100 94" stroke="#2E5BFF" stroke-width="3.5" stroke-linecap="round" opacity="0.55" />

  <path d="M30 30 C40 22, 52 20, 66 24" fill="none" stroke="#F5C518" stroke-width="4" stroke-linecap="round" opacity="0.9" />
  <path d="M28 86 C41 94, 56 96, 72 90" fill="none" stroke="#E63946" stroke-width="4" stroke-linecap="round" opacity="0.85" />
</svg>
